<svg xmlns="http://www.w3.org/2000/svg" width="40" height="40" fill="#7952B3" viewBox="0 0 16 16">
  <path d="M5.062 12.8h3.378c1.623 0 2.887-1.086 2.887-2.641 0-1.208-.756-2.037-1.835-2.224v-.07c.84-.26 1.403-.999 1.403-1.848 0-1.408-1.077-2.363-2.71-2.363H5.062V12.8Zm2.68-6.893h-1.3V3.825h1.3c.962 0 1.54.52 1.54 1.27 0 .784-.594 1.26-1.54 1.26Zm.177 4.65H6.441V8.02h1.485c1.053 0 1.645.504 1.645 1.28 0 .815-.608 1.257-1.65 1.257Z"></path>
  <path d="M0 4a4 4 0 0 1 4-4h8a4 4 0 0 1 4 4v8a4 4 0 0 1-4 4H4a4 4 0 0 1-4-4V4Zm4-3a3 3 0 0 0-3 3v8a3 3 0 0 0 3 3h8a3 3 0 0 0 3-3V4a3 3 0 0 0-3-3H4Z"></path>
</svg>
