<svg xmlns="http://www.w3.org/2000/svg" width="40" height="40" fill="none" viewBox="0 0 54 33">
  <path fill="#38BDF8" d="M13.5 0C7.875 0 4.387 3.125 3.036 9.375 5.25 6.25 7.875 5 11.25 5c3.01 0 5.158 1.25 6.562 3.75 1.26 2.25 1.14 4.375-.355 6.375C16.96 17.5 14.872 18.75 11.917 18.75c-3.052 0-5.52-1.563-7.396-4.688C3.056 20.625 6.615 27.5 13.54 27.5c5.605 0 9.093-3.125 10.443-9.375C21.77 21.25 19.145 22.5 15.77 22.5c-3.01 0-5.158-1.25-6.562-3.75-1.26-2.25-1.14-4.375.355-6.375C14.54 9.375 16.628 8.125 19.583 8.125c3.052 0 5.52 1.563 7.396 4.688C25.944 6.25 22.385 0 15.46 0H13.5Z"></path>
</svg>
